<svg xmlns="http://www.w3.org/2000/svg" xmlns:v="https://svgstorm.com"
viewBox = "0 0 512 512"
width="512"
height="512">
<g fill="None" fill-opacity="0.0" stroke="white" stroke-opacity="0.00" stroke-width="0.3"><path d="
M 0.00 512.00 
L 512.00 512.00
L 512.00 271.00
C 509.77 285.07 508.43 297.22 505.41 310.75 C 502.39 324.28 499.68 334.90 493.87 346.92 C 488.06 358.94 482.72 368.74 472.30 380.30 C 461.88 391.85 449.97 402.97 439.23 408.24 C 428.49 413.50 417.12 419.33 404.25 422.26 C 391.38 425.20 370.99 428.42 355.98 426.98 C 340.96 425.54 329.43 421.46 317.25 417.41 C 305.07 413.36 295.73 408.86 284.70 400.30 C 273.67 391.74 261.36 404.91 248.90 406.91 C 236.44 408.90 216.95 410.08 203.25 407.61 C 189.55 405.13 178.37 402.98 165.75 399.81 C 153.13 396.64 140.12 393.70 126.00 392.00
C 132.75 405.11 133.13 408.49 143.57 421.77 C 154.02 435.05 141.17 445.56 127.77 439.23 C 114.37 432.90 103.43 433.48 90.75 428.24 C 78.07 423.00 66.88 422.37 55.70 416.29 C 44.52 410.20 35.56 410.89 25.75 403.81 C 15.93 396.73 -2.50 393.26 1.00 374.00
C 10.58 370.39 22.94 366.55 32.75 363.41 C 42.56 360.27 52.59 356.08 62.25 352.24 C 71.90 348.40 81.88 345.85 91.25 342.20 C 100.62 338.55 114.29 335.47 124.75 332.41 C 135.22 329.36 152.34 327.12 151.40 340.74 C 150.46 354.37 133.53 359.47 128.00 372.00
C 150.81 373.71 170.20 379.39 192.25 385.20 C 214.29 391.01 241.79 388.57 260.00 382.00
C 252.07 367.78 242.84 358.00 237.61 345.25 C 232.37 332.49 227.34 318.60 224.80 303.75 C 222.26 288.91 218.44 278.90 218.80 261.75 C 219.16 244.60 217.43 219.90 222.64 205.30 C 227.86 190.71 228.44 181.04 240.09 168.08 C 251.73 155.13 263.48 147.76 280.23 146.21 C 296.98 144.66 310.91 148.66 323.25 156.19 C 335.60 163.72 349.90 179.81 357.39 191.75 C 364.88 203.70 371.63 215.57 375.57 228.77 C 379.52 241.97 379.05 262.87 376.41 277.75 C 373.77 292.64 370.42 304.87 363.29 317.30 C 356.15 329.74 350.68 341.74 337.25 355.25 C 323.81 368.75 311.33 379.04 298.00 386.00
C 319.12 398.66 333.03 405.80 361.25 407.80 C 389.46 409.80 413.71 405.57 433.25 391.20 C 452.79 376.83 472.46 352.14 479.26 332.25 C 486.07 312.36 494.94 287.83 495.59 259.25 C 496.25 230.68 492.65 200.68 483.74 178.25 C 474.82 155.82 469.61 140.46 450.10 118.90 C 430.59 97.35 407.12 84.20 387.00 76.00
C 388.42 73.95 386.58 72.14 388.00 70.00
C 418.86 72.32 435.12 75.28 456.92 94.13 C 478.72 112.98 488.39 134.82 496.06 156.08 C 503.74 177.35 509.87 204.05 512.00 230.00
L 512.00 0.00
L 0.00 0.00
L 0.00 512.00 Z"/>
</g>
<g fill="None" fill-opacity="0.0" stroke="white" stroke-opacity="0.97" stroke-width="0.3"><path d="
M 512.00 271.00 
L 512.00 263.00
C 510.35 255.41 510.32 244.52 512.00 237.00
L 512.00 230.00
C 509.87 204.05 503.74 177.35 496.06 156.08 C 488.39 134.82 478.72 112.98 456.92 94.13 C 435.12 75.28 418.86 72.32 388.00 70.00
C 386.58 72.14 388.42 73.95 387.00 76.00
C 407.12 84.20 430.59 97.35 450.10 118.90 C 469.61 140.46 474.82 155.82 483.74 178.25 C 492.65 200.68 496.25 230.68 495.59 259.25 C 494.94 287.83 486.07 312.36 479.26 332.25 C 472.46 352.14 452.79 376.83 433.25 391.20 C 413.71 405.57 389.46 409.80 361.25 407.80 C 333.03 405.80 319.12 398.66 298.00 386.00
C 311.33 379.04 323.81 368.75 337.25 355.25 C 350.68 341.74 356.15 329.74 363.29 317.30 C 370.42 304.87 373.77 292.64 376.41 277.75 C 379.05 262.87 379.52 241.97 375.57 228.77 C 371.63 215.57 364.88 203.70 357.39 191.75 C 349.90 179.81 335.60 163.72 323.25 156.19 C 310.91 148.66 296.98 144.66 280.23 146.21 C 263.48 147.76 251.73 155.13 240.09 168.08 C 228.44 181.04 227.86 190.71 222.64 205.30 C 217.43 219.90 219.16 244.60 218.80 261.75 C 218.44 278.90 222.26 288.91 224.80 303.75 C 227.34 318.60 232.37 332.49 237.61 345.25 C 242.84 358.00 252.07 367.78 260.00 382.00
C 241.79 388.57 214.29 391.01 192.25 385.20 C 170.20 379.39 150.81 373.71 128.00 372.00
C 133.53 359.47 150.46 354.37 151.40 340.74 C 152.34 327.12 135.22 329.36 124.75 332.41 C 114.29 335.47 100.62 338.55 91.25 342.20 C 81.88 345.85 71.90 348.40 62.25 352.24 C 52.59 356.08 42.56 360.27 32.75 363.41 C 22.94 366.55 10.58 370.39 1.00 374.00
C -2.50 393.26 15.93 396.73 25.75 403.81 C 35.56 410.89 44.52 410.20 55.70 416.29 C 66.88 422.37 78.07 423.00 90.75 428.24 C 103.43 433.48 114.37 432.90 127.77 439.23 C 141.17 445.56 154.02 435.05 143.57 421.77 C 133.13 408.49 132.75 405.11 126.00 392.00
C 140.12 393.70 153.13 396.64 165.75 399.81 C 178.37 402.98 189.55 405.13 203.25 407.61 C 216.95 410.08 236.44 408.90 248.90 406.91 C 261.36 404.91 273.67 391.74 284.70 400.30 C 295.73 408.86 305.07 413.36 317.25 417.41 C 329.43 421.46 340.96 425.54 355.98 426.98 C 370.99 428.42 391.38 425.20 404.25 422.26 C 417.12 419.33 428.49 413.50 439.23 408.24 C 449.97 402.97 461.88 391.85 472.30 380.30 C 482.72 368.74 488.06 358.94 493.87 346.92 C 499.68 334.90 502.39 324.28 505.41 310.75 C 508.43 297.22 509.77 285.07 512.00 271.00
M 280.00 372.00 
C 264.13 352.45 250.46 333.05 245.41 311.25 C 240.36 289.45 234.11 257.33 239.20 233.75 C 244.29 210.18 249.04 190.89 266.75 172.75 C 284.46 154.61 313.62 171.90 329.08 189.92 C 344.55 207.94 355.92 226.94 355.93 254.07 C 355.93 281.21 347.31 301.46 335.81 321.25 C 324.31 341.05 297.11 361.61 280.00 372.00
M 114.00 355.00 
C 104.74 363.70 99.08 371.31 95.00 379.00
C 102.17 391.74 111.11 399.86 116.00 413.00
C 86.19 405.94 60.25 394.74 34.00 384.00
C 60.44 374.01 84.90 364.81 114.00 355.00 Z"/>
</g>
<g fill="None" fill-opacity="0.0" stroke="white" stroke-opacity="0.01" stroke-width="0.3"><path d="
M 280.00 372.00 
C 297.11 361.61 324.31 341.05 335.81 321.25 C 347.31 301.46 355.93 281.21 355.93 254.07 C 355.92 226.94 344.55 207.94 329.08 189.92 C 313.62 171.90 284.46 154.61 266.75 172.75 C 249.04 190.89 244.29 210.18 239.20 233.75 C 234.11 257.33 240.36 289.45 245.41 311.25 C 250.46 333.05 264.13 352.45 280.00 372.00 Z"/>
</g>
<g fill="None" fill-opacity="0.0" stroke="white" stroke-opacity="0.80" stroke-width="0.3"><path d="
M 512.00 263.00 
L 512.00 237.00
C 510.32 244.52 510.35 255.41 512.00 263.00 Z"/>
</g>
<g fill="None" fill-opacity="0.0" stroke="white" stroke-opacity="0.04" stroke-width="0.3"><path d="
M 114.00 355.00 
C 84.90 364.81 60.44 374.01 34.00 384.00
C 60.25 394.74 86.19 405.94 116.00 413.00
C 111.11 399.86 102.17 391.74 95.00 379.00
C 99.08 371.31 104.74 363.70 114.00 355.00 Z"/>
</g>
<g fill="white" fill-opacity="0.00" stroke="None">
<path d="
M 0.00 512.00 
L 512.00 512.00
L 512.00 271.00
C 509.77 285.07 508.43 297.22 505.41 310.75 C 502.39 324.28 499.68 334.90 493.87 346.92 C 488.06 358.94 482.72 368.74 472.30 380.30 C 461.88 391.85 449.97 402.97 439.23 408.24 C 428.49 413.50 417.12 419.33 404.25 422.26 C 391.38 425.20 370.99 428.42 355.98 426.98 C 340.96 425.54 329.43 421.46 317.25 417.41 C 305.07 413.36 295.73 408.86 284.70 400.30 C 273.67 391.74 261.36 404.91 248.90 406.91 C 236.44 408.90 216.95 410.08 203.25 407.61 C 189.55 405.13 178.37 402.98 165.75 399.81 C 153.13 396.64 140.12 393.70 126.00 392.00
C 132.75 405.11 133.13 408.49 143.57 421.77 C 154.02 435.05 141.17 445.56 127.77 439.23 C 114.37 432.90 103.43 433.48 90.75 428.24 C 78.07 423.00 66.88 422.37 55.70 416.29 C 44.52 410.20 35.56 410.89 25.75 403.81 C 15.93 396.73 -2.50 393.26 1.00 374.00
C 10.58 370.39 22.94 366.55 32.75 363.41 C 42.56 360.27 52.59 356.08 62.25 352.24 C 71.90 348.40 81.88 345.85 91.25 342.20 C 100.62 338.55 114.29 335.47 124.75 332.41 C 135.22 329.36 152.34 327.12 151.40 340.74 C 150.46 354.37 133.53 359.47 128.00 372.00
C 150.81 373.71 170.20 379.39 192.25 385.20 C 214.29 391.01 241.79 388.57 260.00 382.00
C 252.07 367.78 242.84 358.00 237.61 345.25 C 232.37 332.49 227.34 318.60 224.80 303.75 C 222.26 288.91 218.44 278.90 218.80 261.75 C 219.16 244.60 217.43 219.90 222.64 205.30 C 227.86 190.71 228.44 181.04 240.09 168.08 C 251.73 155.13 263.48 147.76 280.23 146.21 C 296.98 144.66 310.91 148.66 323.25 156.19 C 335.60 163.72 349.90 179.81 357.39 191.75 C 364.88 203.70 371.63 215.57 375.57 228.77 C 379.52 241.97 379.05 262.87 376.41 277.75 C 373.77 292.64 370.42 304.87 363.29 317.30 C 356.15 329.74 350.68 341.74 337.25 355.25 C 323.81 368.75 311.33 379.04 298.00 386.00
C 319.12 398.66 333.03 405.80 361.25 407.80 C 389.46 409.80 413.71 405.57 433.25 391.20 C 452.79 376.83 472.46 352.14 479.26 332.25 C 486.07 312.36 494.94 287.83 495.59 259.25 C 496.25 230.68 492.65 200.68 483.74 178.25 C 474.82 155.82 469.61 140.46 450.10 118.90 C 430.59 97.35 407.12 84.20 387.00 76.00
C 388.42 73.95 386.58 72.14 388.00 70.00
C 418.86 72.32 435.12 75.28 456.92 94.13 C 478.72 112.98 488.39 134.82 496.06 156.08 C 503.74 177.35 509.87 204.05 512.00 230.00
L 512.00 0.00
L 0.00 0.00
L 0.00 512.00 Z"/>
</g>
<g fill="white" fill-opacity="0.97" stroke="None">
<path d="
M 512.00 271.00 
L 512.00 263.00
C 510.35 255.41 510.32 244.52 512.00 237.00
L 512.00 230.00
C 509.87 204.05 503.74 177.35 496.06 156.08 C 488.39 134.82 478.72 112.98 456.92 94.13 C 435.12 75.28 418.86 72.32 388.00 70.00
C 386.58 72.14 388.42 73.95 387.00 76.00
C 407.12 84.20 430.59 97.35 450.10 118.90 C 469.61 140.46 474.82 155.82 483.74 178.25 C 492.65 200.68 496.25 230.68 495.59 259.25 C 494.94 287.83 486.07 312.36 479.26 332.25 C 472.46 352.14 452.79 376.83 433.25 391.20 C 413.71 405.57 389.46 409.80 361.25 407.80 C 333.03 405.80 319.12 398.66 298.00 386.00
C 311.33 379.04 323.81 368.75 337.25 355.25 C 350.68 341.74 356.15 329.74 363.29 317.30 C 370.42 304.87 373.77 292.64 376.41 277.75 C 379.05 262.87 379.52 241.97 375.57 228.77 C 371.63 215.57 364.88 203.70 357.39 191.75 C 349.90 179.81 335.60 163.72 323.25 156.19 C 310.91 148.66 296.98 144.66 280.23 146.21 C 263.48 147.76 251.73 155.13 240.09 168.08 C 228.44 181.04 227.86 190.71 222.64 205.30 C 217.43 219.90 219.16 244.60 218.80 261.75 C 218.44 278.90 222.26 288.91 224.80 303.75 C 227.34 318.60 232.37 332.49 237.61 345.25 C 242.84 358.00 252.07 367.78 260.00 382.00
C 241.79 388.57 214.29 391.01 192.25 385.20 C 170.20 379.39 150.81 373.71 128.00 372.00
C 133.53 359.47 150.46 354.37 151.40 340.74 C 152.34 327.12 135.22 329.36 124.75 332.41 C 114.29 335.47 100.62 338.55 91.25 342.20 C 81.88 345.85 71.90 348.40 62.25 352.24 C 52.59 356.08 42.56 360.27 32.75 363.41 C 22.94 366.55 10.58 370.39 1.00 374.00
C -2.50 393.26 15.93 396.73 25.75 403.81 C 35.56 410.89 44.52 410.20 55.70 416.29 C 66.88 422.37 78.07 423.00 90.75 428.24 C 103.43 433.48 114.37 432.90 127.77 439.23 C 141.17 445.56 154.02 435.05 143.57 421.77 C 133.13 408.49 132.75 405.11 126.00 392.00
C 140.12 393.70 153.13 396.64 165.75 399.81 C 178.37 402.98 189.55 405.13 203.25 407.61 C 216.95 410.08 236.44 408.90 248.90 406.91 C 261.36 404.91 273.67 391.74 284.70 400.30 C 295.73 408.86 305.07 413.36 317.25 417.41 C 329.43 421.46 340.96 425.54 355.98 426.98 C 370.99 428.42 391.38 425.20 404.25 422.26 C 417.12 419.33 428.49 413.50 439.23 408.24 C 449.97 402.97 461.88 391.85 472.30 380.30 C 482.72 368.74 488.06 358.94 493.87 346.92 C 499.68 334.90 502.39 324.28 505.41 310.75 C 508.43 297.22 509.77 285.07 512.00 271.00
M 280.00 372.00 
C 264.13 352.45 250.46 333.05 245.41 311.25 C 240.36 289.45 234.11 257.33 239.20 233.75 C 244.29 210.18 249.04 190.89 266.75 172.75 C 284.46 154.61 313.62 171.90 329.08 189.92 C 344.55 207.94 355.92 226.94 355.93 254.07 C 355.93 281.21 347.31 301.46 335.81 321.25 C 324.31 341.05 297.11 361.61 280.00 372.00
M 114.00 355.00 
C 104.74 363.70 99.08 371.31 95.00 379.00
C 102.17 391.74 111.11 399.86 116.00 413.00
C 86.19 405.94 60.25 394.74 34.00 384.00
C 60.44 374.01 84.90 364.81 114.00 355.00 Z"/>
</g>
<g fill="white" fill-opacity="0.01" stroke="None">
<path d="
M 280.00 372.00 
C 297.11 361.61 324.31 341.05 335.81 321.25 C 347.31 301.46 355.93 281.21 355.93 254.07 C 355.92 226.94 344.55 207.94 329.08 189.92 C 313.62 171.90 284.46 154.61 266.75 172.75 C 249.04 190.89 244.29 210.18 239.20 233.75 C 234.11 257.33 240.36 289.45 245.41 311.25 C 250.46 333.05 264.13 352.45 280.00 372.00 Z"/>
</g>
<g fill="white" fill-opacity="0.80" stroke="None">
<path d="
M 512.00 263.00 
L 512.00 237.00
C 510.32 244.52 510.35 255.41 512.00 263.00 Z"/>
</g>
<g fill="white" fill-opacity="0.04" stroke="None">
<path d="
M 114.00 355.00 
C 84.90 364.81 60.44 374.01 34.00 384.00
C 60.25 394.74 86.19 405.94 116.00 413.00
C 111.11 399.86 102.17 391.74 95.00 379.00
C 99.08 371.31 104.74 363.70 114.00 355.00 Z"/>
</g>
</svg>