<svg xmlns="http://www.w3.org/2000/svg" xmlns:v="https://svgstorm.com"
viewBox = "0 0 700 700"
width="700"
height="700">
<g fill="None" fill-opacity="0.0" stroke="#000000" stroke-opacity="0.00" stroke-width="0.3"><path d="
M 0.00 700.00 
L 700.00 700.00
L 700.00 0.00
L 0.00 0.00
L 0.00 700.00
M 376.00 2.00 
C 410.44 5.33 451.32 14.11 482.68 27.32 C 514.03 40.53 540.28 55.78 566.25 76.75 C 592.22 97.72 611.33 116.58 631.25 143.75 C 651.17 170.93 665.23 197.54 677.77 230.23 C 690.31 262.92 696.85 304.91 698.00 342.00 C 699.15 379.09 692.70 425.13 681.22 458.22 C 669.75 491.31 656.88 519.73 637.25 547.25 C 617.61 574.77 600.72 594.84 574.75 616.75 C 548.79 638.66 524.39 653.35 492.92 667.92 C 461.46 682.50 425.16 691.88 389.00 696.00 C 352.84 700.12 301.47 697.80 267.33 688.67 C 233.18 679.55 202.63 668.25 173.30 650.70 C 143.97 633.14 123.04 616.31 99.25 591.75 C 75.45 567.19 59.29 545.02 43.08 514.92 C 26.86 484.83 15.20 452.82 8.02 417.98 C 0.85 383.14 -0.07 330.30 5.98 294.98 C 12.02 259.65 21.95 225.28 37.77 194.77 C 53.59 164.26 68.53 140.60 91.75 115.75 C 114.98 90.91 134.48 73.17 163.25 55.25 C 192.01 37.32 221.07 23.62 255.22 14.22 C 289.38 4.83 337.88 -1.69 376.00 2.00 Z"/>
</g>
<g fill="None" fill-opacity="0.0" stroke="#FDDDDE" stroke-opacity="1.00" stroke-width="0.3"><path d="
M 376.00 2.00 
C 337.88 -1.69 289.38 4.83 255.22 14.22 C 221.07 23.62 192.01 37.32 163.25 55.25 C 134.48 73.17 114.98 90.91 91.75 115.75 C 68.53 140.60 53.59 164.26 37.77 194.77 C 21.95 225.28 12.02 259.65 5.98 294.98 C -0.07 330.30 0.85 383.14 8.02 417.98 C 15.20 452.82 26.86 484.83 43.08 514.92 C 59.29 545.02 75.45 567.19 99.25 591.75 C 123.04 616.31 143.97 633.14 173.30 650.70 C 202.63 668.25 233.18 679.55 267.33 688.67 C 301.47 697.80 352.84 700.12 389.00 696.00 C 425.16 691.88 461.46 682.50 492.92 667.92 C 524.39 653.35 548.79 638.66 574.75 616.75 C 600.72 594.84 617.61 574.77 637.25 547.25 C 656.88 519.73 669.75 491.31 681.22 458.22 C 692.70 425.13 699.15 379.09 698.00 342.00 C 696.85 304.91 690.31 262.92 677.77 230.23 C 665.23 197.54 651.17 170.93 631.25 143.75 C 611.33 116.58 592.22 97.72 566.25 76.75 C 540.28 55.78 514.03 40.53 482.68 27.32 C 451.32 14.11 410.44 5.33 376.00 2.00
M 482.00 154.00 
C 487.40 157.56 491.68 164.45 496.75 168.25 C 501.82 172.05 506.61 180.31 511.75 183.25 C 516.90 186.18 521.42 197.75 527.00 198.00
C 527.55 197.49 528.41 197.37 529.00 197.00
C 551.46 183.02 568.94 211.08 555.70 226.70 C 542.45 242.32 531.16 250.35 518.25 264.25 C 505.34 278.15 492.97 289.07 480.25 302.25 C 467.52 315.42 455.38 326.92 442.75 339.75 C 430.13 352.58 417.86 364.55 405.25 377.25 C 392.64 389.95 379.86 402.60 367.25 415.25 C 354.63 427.89 342.39 440.11 329.75 452.75 C 317.12 465.39 304.99 477.53 292.25 490.25 C 279.51 502.97 267.20 515.37 254.25 528.25 C 241.29 541.13 230.17 552.49 216.75 565.75 C 203.33 579.01 193.75 589.11 179.25 603.25 C 164.75 617.39 132.87 598.70 149.00 577.00
C 163.92 556.93 185.63 542.05 202.25 523.25 C 218.87 504.45 238.65 488.23 255.75 469.75 C 272.86 451.27 292.70 434.28 309.75 415.75 C 326.80 397.22 346.85 381.26 363.25 362.25 C 379.64 343.24 402.70 328.46 417.00 308.00
C 406.63 293.18 389.69 282.57 378.00 269.00
C 375.14 276.74 375.42 285.90 377.00 294.00
C 365.99 297.42 354.92 293.54 345.75 288.25 C 336.59 282.95 332.50 275.89 328.68 266.32 C 324.86 256.75 326.27 243.79 330.92 234.92 C 335.58 226.06 342.39 220.20 349.25 213.25 C 356.10 206.30 362.12 200.57 368.75 193.75 C 375.39 186.93 381.74 181.15 388.25 174.25 C 394.75 167.34 401.38 162.01 407.75 154.75 C 414.13 147.49 421.63 142.77 427.75 134.75 C 433.88 126.74 437.49 115.20 436.00 104.00 C 434.51 92.80 453.60 96.78 461.70 101.31 C 469.79 105.83 477.01 111.70 481.25 120.75 C 485.50 129.79 487.20 144.49 482.00 154.00 Z"/>
</g>
<g fill="None" fill-opacity="0.0" stroke="#FC7576" stroke-opacity="1.00" stroke-width="0.3"><path d="
M 378.00 269.00 
C 379.92 263.81 382.51 259.43 386.00 255.00
C 398.75 238.85 415.81 225.96 429.75 210.75 C 443.69 195.54 459.51 181.49 474.00 167.00
C 477.56 162.83 480.15 159.01 482.00 154.00
C 487.20 144.49 485.50 129.79 481.25 120.75 C 477.01 111.70 469.79 105.83 461.70 101.31 C 453.60 96.78 434.51 92.80 436.00 104.00 C 437.49 115.20 433.88 126.74 427.75 134.75 C 421.63 142.77 414.13 147.49 407.75 154.75 C 401.38 162.01 394.75 167.34 388.25 174.25 C 381.74 181.15 375.39 186.93 368.75 193.75 C 362.12 200.57 356.10 206.30 349.25 213.25 C 342.39 220.20 335.58 226.06 330.92 234.92 C 326.27 243.79 324.86 256.75 328.68 266.32 C 332.50 275.89 336.59 282.95 345.75 288.25 C 354.92 293.54 365.99 297.42 377.00 294.00
C 375.42 285.90 375.14 276.74 378.00 269.00 Z"/>
</g>
<g fill="None" fill-opacity="0.0" stroke="#FEE8BE" stroke-opacity="1.00" stroke-width="0.3"><path d="
M 474.00 167.00 
C 469.05 172.80 463.34 178.66 458.00 184.00
C 458.00 189.03 469.11 193.06 471.25 197.75 C 473.38 202.44 483.11 207.03 485.25 211.75 C 487.38 216.48 499.00 220.94 499.00 226.00
C 508.19 216.81 517.56 206.80 527.00 198.00
C 521.42 197.75 516.90 186.18 511.75 183.25 C 506.61 180.31 501.82 172.05 496.75 168.25 C 491.68 164.45 487.40 157.56 482.00 154.00
C 480.15 159.01 477.56 162.83 474.00 167.00 Z"/>
</g>
<g fill="None" fill-opacity="0.0" stroke="#FDA387" stroke-opacity="1.00" stroke-width="0.3"><path d="
M 386.00 255.00 
C 391.17 249.41 397.66 244.34 403.00 239.00
C 411.92 230.08 421.13 220.87 430.00 212.00
C 439.25 202.75 448.80 193.20 458.00 184.00
C 463.34 178.66 469.05 172.80 474.00 167.00
C 459.51 181.49 443.69 195.54 429.75 210.75 C 415.81 225.96 398.75 238.85 386.00 255.00 Z"/>
</g>
<g fill="None" fill-opacity="0.0" stroke="#FED37D" stroke-opacity="1.00" stroke-width="0.3"><path d="
M 430.00 212.00 
C 435.03 212.00 439.06 223.11 443.75 225.25 C 448.44 227.38 453.03 237.11 457.75 239.25 C 462.48 241.38 466.94 253.00 472.00 253.00
C 480.92 244.08 490.13 234.87 499.00 226.00
C 499.00 220.94 487.38 216.48 485.25 211.75 C 483.11 207.03 473.38 202.44 471.25 197.75 C 469.11 193.06 458.00 189.03 458.00 184.00
C 448.80 193.20 439.25 202.75 430.00 212.00 Z"/>
</g>
<g fill="None" fill-opacity="0.0" stroke="#3E7A94" stroke-opacity="1.00" stroke-width="0.3"><path d="
M 529.00 197.00 
C 509.46 214.03 492.63 234.82 473.75 252.75 C 454.88 270.69 436.32 289.68 418.00 308.00
C 388.23 337.77 358.33 367.70 328.75 397.75 C 299.17 427.81 268.06 456.45 239.25 487.25 C 210.44 518.05 176.60 545.34 149.00 577.00
C 132.87 598.70 164.75 617.39 179.25 603.25 C 193.75 589.11 203.33 579.01 216.75 565.75 C 230.17 552.49 241.29 541.13 254.25 528.25 C 267.20 515.37 279.51 502.97 292.25 490.25 C 304.99 477.53 317.12 465.39 329.75 452.75 C 342.39 440.11 354.63 427.89 367.25 415.25 C 379.86 402.60 392.64 389.95 405.25 377.25 C 417.86 364.55 430.13 352.58 442.75 339.75 C 455.38 326.92 467.52 315.42 480.25 302.25 C 492.97 289.07 505.34 278.15 518.25 264.25 C 531.16 250.35 542.45 242.32 555.70 226.70 C 568.94 211.08 551.46 183.02 529.00 197.00 Z"/>
</g>
<g fill="None" fill-opacity="0.0" stroke="#739697" stroke-opacity="1.00" stroke-width="0.3"><path d="
M 527.00 198.00 
C 517.56 206.80 508.19 216.81 499.00 226.00
C 490.13 234.87 480.92 244.08 472.00 253.00
C 463.08 261.92 453.87 271.13 445.00 280.00
C 436.32 288.68 425.00 297.99 418.00 308.00
C 436.32 289.68 454.88 270.69 473.75 252.75 C 492.63 234.82 509.46 214.03 529.00 197.00
C 528.41 197.37 527.55 197.49 527.00 198.00 Z"/>
</g>
<g fill="None" fill-opacity="0.0" stroke="#FEE8BE" stroke-opacity="1.00" stroke-width="0.3"><path d="
M 403.00 239.00 
C 408.03 239.00 412.06 250.11 416.75 252.25 C 421.44 254.38 426.03 264.11 430.75 266.25 C 435.48 268.38 439.94 280.00 445.00 280.00
C 453.87 271.13 463.08 261.92 472.00 253.00
C 466.94 253.00 462.48 241.38 457.75 239.25 C 453.03 237.11 448.44 227.38 443.75 225.25 C 439.06 223.11 435.03 212.00 430.00 212.00
C 421.13 220.87 411.92 230.08 403.00 239.00 Z"/>
</g>
<g fill="None" fill-opacity="0.0" stroke="#FED37D" stroke-opacity="1.00" stroke-width="0.3"><path d="
M 386.00 255.00 
C 382.51 259.43 379.92 263.81 378.00 269.00
C 389.69 282.57 406.63 293.18 417.00 308.00
C 417.16 307.77 418.00 308.00 418.00 308.00
C 425.00 297.99 436.32 288.68 445.00 280.00
C 439.94 280.00 435.48 268.38 430.75 266.25 C 426.03 264.11 421.44 254.38 416.75 252.25 C 412.06 250.11 408.03 239.00 403.00 239.00
C 397.66 244.34 391.17 249.41 386.00 255.00 Z"/>
</g>
<g fill="None" fill-opacity="0.0" stroke="#7396A9" stroke-opacity="1.00" stroke-width="0.3"><path d="
M 149.00 577.00 
C 176.60 545.34 210.44 518.05 239.25 487.25 C 268.06 456.45 299.17 427.81 328.75 397.75 C 358.33 367.70 388.23 337.77 418.00 308.00
C 418.00 308.00 417.16 307.77 417.00 308.00
C 402.70 328.46 379.64 343.24 363.25 362.25 C 346.85 381.26 326.80 397.22 309.75 415.75 C 292.70 434.28 272.86 451.27 255.75 469.75 C 238.65 488.23 218.87 504.45 202.25 523.25 C 185.63 542.05 163.92 556.93 149.00 577.00 Z"/>
</g>
<g fill="#000000" fill-opacity="0.00" stroke="None">
<path d="
M 0.00 700.00 
L 700.00 700.00
L 700.00 0.00
L 0.00 0.00
L 0.00 700.00
M 376.00 2.00 
C 410.44 5.33 451.32 14.11 482.68 27.32 C 514.03 40.53 540.28 55.78 566.25 76.75 C 592.22 97.72 611.33 116.58 631.25 143.75 C 651.17 170.93 665.23 197.54 677.77 230.23 C 690.31 262.92 696.85 304.91 698.00 342.00 C 699.15 379.09 692.70 425.13 681.22 458.22 C 669.75 491.31 656.88 519.73 637.25 547.25 C 617.61 574.77 600.72 594.84 574.75 616.75 C 548.79 638.66 524.39 653.35 492.92 667.92 C 461.46 682.50 425.16 691.88 389.00 696.00 C 352.84 700.12 301.47 697.80 267.33 688.67 C 233.18 679.55 202.63 668.25 173.30 650.70 C 143.97 633.14 123.04 616.31 99.25 591.75 C 75.45 567.19 59.29 545.02 43.08 514.92 C 26.86 484.83 15.20 452.82 8.02 417.98 C 0.85 383.14 -0.07 330.30 5.98 294.98 C 12.02 259.65 21.95 225.28 37.77 194.77 C 53.59 164.26 68.53 140.60 91.75 115.75 C 114.98 90.91 134.48 73.17 163.25 55.25 C 192.01 37.32 221.07 23.62 255.22 14.22 C 289.38 4.83 337.88 -1.69 376.00 2.00 Z"/>
</g>
<g fill="#FDDDDE" fill-opacity="1.00" stroke="None">
<path d="
M 376.00 2.00 
C 337.88 -1.69 289.38 4.83 255.22 14.22 C 221.07 23.62 192.01 37.32 163.25 55.25 C 134.48 73.17 114.98 90.91 91.75 115.75 C 68.53 140.60 53.59 164.26 37.77 194.77 C 21.95 225.28 12.02 259.65 5.98 294.98 C -0.07 330.30 0.85 383.14 8.02 417.98 C 15.20 452.82 26.86 484.83 43.08 514.92 C 59.29 545.02 75.45 567.19 99.25 591.75 C 123.04 616.31 143.97 633.14 173.30 650.70 C 202.63 668.25 233.18 679.55 267.33 688.67 C 301.47 697.80 352.84 700.12 389.00 696.00 C 425.16 691.88 461.46 682.50 492.92 667.92 C 524.39 653.35 548.79 638.66 574.75 616.75 C 600.72 594.84 617.61 574.77 637.25 547.25 C 656.88 519.73 669.75 491.31 681.22 458.22 C 692.70 425.13 699.15 379.09 698.00 342.00 C 696.85 304.91 690.31 262.92 677.77 230.23 C 665.23 197.54 651.17 170.93 631.25 143.75 C 611.33 116.58 592.22 97.72 566.25 76.75 C 540.28 55.78 514.03 40.53 482.68 27.32 C 451.32 14.11 410.44 5.33 376.00 2.00
M 482.00 154.00 
C 487.40 157.56 491.68 164.45 496.75 168.25 C 501.82 172.05 506.61 180.31 511.75 183.25 C 516.90 186.18 521.42 197.75 527.00 198.00
C 527.55 197.49 528.41 197.37 529.00 197.00
C 551.46 183.02 568.94 211.08 555.70 226.70 C 542.45 242.32 531.16 250.35 518.25 264.25 C 505.34 278.15 492.97 289.07 480.25 302.25 C 467.52 315.42 455.38 326.92 442.75 339.75 C 430.13 352.58 417.86 364.55 405.25 377.25 C 392.64 389.95 379.86 402.60 367.25 415.25 C 354.63 427.89 342.39 440.11 329.75 452.75 C 317.12 465.39 304.99 477.53 292.25 490.25 C 279.51 502.97 267.20 515.37 254.25 528.25 C 241.29 541.13 230.17 552.49 216.75 565.75 C 203.33 579.01 193.75 589.11 179.25 603.25 C 164.75 617.39 132.87 598.70 149.00 577.00
C 163.92 556.93 185.63 542.05 202.25 523.25 C 218.87 504.45 238.65 488.23 255.75 469.75 C 272.86 451.27 292.70 434.28 309.75 415.75 C 326.80 397.22 346.85 381.26 363.25 362.25 C 379.64 343.24 402.70 328.46 417.00 308.00
C 406.63 293.18 389.69 282.57 378.00 269.00
C 375.14 276.74 375.42 285.90 377.00 294.00
C 365.99 297.42 354.92 293.54 345.75 288.25 C 336.59 282.95 332.50 275.89 328.68 266.32 C 324.86 256.75 326.27 243.79 330.92 234.92 C 335.58 226.06 342.39 220.20 349.25 213.25 C 356.10 206.30 362.12 200.57 368.75 193.75 C 375.39 186.93 381.74 181.15 388.25 174.25 C 394.75 167.34 401.38 162.01 407.75 154.75 C 414.13 147.49 421.63 142.77 427.75 134.75 C 433.88 126.74 437.49 115.20 436.00 104.00 C 434.51 92.80 453.60 96.78 461.70 101.31 C 469.79 105.83 477.01 111.70 481.25 120.75 C 485.50 129.79 487.20 144.49 482.00 154.00 Z"/>
</g>
<g fill="#FC7576" fill-opacity="1.00" stroke="None">
<path d="
M 378.00 269.00 
C 379.92 263.81 382.51 259.43 386.00 255.00
C 398.75 238.85 415.81 225.96 429.75 210.75 C 443.69 195.54 459.51 181.49 474.00 167.00
C 477.56 162.83 480.15 159.01 482.00 154.00
C 487.20 144.49 485.50 129.79 481.25 120.75 C 477.01 111.70 469.79 105.83 461.70 101.31 C 453.60 96.78 434.51 92.80 436.00 104.00 C 437.49 115.20 433.88 126.74 427.75 134.75 C 421.63 142.77 414.13 147.49 407.75 154.75 C 401.38 162.01 394.75 167.34 388.25 174.25 C 381.74 181.15 375.39 186.93 368.75 193.75 C 362.12 200.57 356.10 206.30 349.25 213.25 C 342.39 220.20 335.58 226.06 330.92 234.92 C 326.27 243.79 324.86 256.75 328.68 266.32 C 332.50 275.89 336.59 282.95 345.75 288.25 C 354.92 293.54 365.99 297.42 377.00 294.00
C 375.42 285.90 375.14 276.74 378.00 269.00 Z"/>
</g>
<g fill="#FEE8BE" fill-opacity="1.00" stroke="None">
<path d="
M 474.00 167.00 
C 469.05 172.80 463.34 178.66 458.00 184.00
C 458.00 189.03 469.11 193.06 471.25 197.75 C 473.38 202.44 483.11 207.03 485.25 211.75 C 487.38 216.48 499.00 220.94 499.00 226.00
C 508.19 216.81 517.56 206.80 527.00 198.00
C 521.42 197.75 516.90 186.18 511.75 183.25 C 506.61 180.31 501.82 172.05 496.75 168.25 C 491.68 164.45 487.40 157.56 482.00 154.00
C 480.15 159.01 477.56 162.83 474.00 167.00 Z"/>
</g>
<g fill="#FDA387" fill-opacity="1.00" stroke="None">
<path d="
M 386.00 255.00 
C 391.17 249.41 397.66 244.34 403.00 239.00
C 411.92 230.08 421.13 220.87 430.00 212.00
C 439.25 202.75 448.80 193.20 458.00 184.00
C 463.34 178.66 469.05 172.80 474.00 167.00
C 459.51 181.49 443.69 195.54 429.75 210.75 C 415.81 225.96 398.75 238.85 386.00 255.00 Z"/>
</g>
<g fill="#FED37D" fill-opacity="1.00" stroke="None">
<path d="
M 430.00 212.00 
C 435.03 212.00 439.06 223.11 443.75 225.25 C 448.44 227.38 453.03 237.11 457.75 239.25 C 462.48 241.38 466.94 253.00 472.00 253.00
C 480.92 244.08 490.13 234.87 499.00 226.00
C 499.00 220.94 487.38 216.48 485.25 211.75 C 483.11 207.03 473.38 202.44 471.25 197.75 C 469.11 193.06 458.00 189.03 458.00 184.00
C 448.80 193.20 439.25 202.75 430.00 212.00 Z"/>
</g>
<g fill="#3E7A94" fill-opacity="1.00" stroke="None">
<path d="
M 529.00 197.00 
C 509.46 214.03 492.63 234.82 473.75 252.75 C 454.88 270.69 436.32 289.68 418.00 308.00
C 388.23 337.77 358.33 367.70 328.75 397.75 C 299.17 427.81 268.06 456.45 239.25 487.25 C 210.44 518.05 176.60 545.34 149.00 577.00
C 132.87 598.70 164.75 617.39 179.25 603.25 C 193.75 589.11 203.33 579.01 216.75 565.75 C 230.17 552.49 241.29 541.13 254.25 528.25 C 267.20 515.37 279.51 502.97 292.25 490.25 C 304.99 477.53 317.12 465.39 329.75 452.75 C 342.39 440.11 354.63 427.89 367.25 415.25 C 379.86 402.60 392.64 389.95 405.25 377.25 C 417.86 364.55 430.13 352.58 442.75 339.75 C 455.38 326.92 467.52 315.42 480.25 302.25 C 492.97 289.07 505.34 278.15 518.25 264.25 C 531.16 250.35 542.45 242.32 555.70 226.70 C 568.94 211.08 551.46 183.02 529.00 197.00 Z"/>
</g>
<g fill="#739697" fill-opacity="1.00" stroke="None">
<path d="
M 527.00 198.00 
C 517.56 206.80 508.19 216.81 499.00 226.00
C 490.13 234.87 480.92 244.08 472.00 253.00
C 463.08 261.92 453.87 271.13 445.00 280.00
C 436.32 288.68 425.00 297.99 418.00 308.00
C 436.32 289.68 454.88 270.69 473.75 252.75 C 492.63 234.82 509.46 214.03 529.00 197.00
C 528.41 197.37 527.55 197.49 527.00 198.00 Z"/>
</g>
<g fill="#FEE8BE" fill-opacity="1.00" stroke="None">
<path d="
M 403.00 239.00 
C 408.03 239.00 412.06 250.11 416.75 252.25 C 421.44 254.38 426.03 264.11 430.75 266.25 C 435.48 268.38 439.94 280.00 445.00 280.00
C 453.87 271.13 463.08 261.92 472.00 253.00
C 466.94 253.00 462.48 241.38 457.75 239.25 C 453.03 237.11 448.44 227.38 443.75 225.25 C 439.06 223.11 435.03 212.00 430.00 212.00
C 421.13 220.87 411.92 230.08 403.00 239.00 Z"/>
</g>
<g fill="#FED37D" fill-opacity="1.00" stroke="None">
<path d="
M 386.00 255.00 
C 382.51 259.43 379.92 263.81 378.00 269.00
C 389.69 282.57 406.63 293.18 417.00 308.00
C 417.16 307.77 418.00 308.00 418.00 308.00
C 425.00 297.99 436.32 288.68 445.00 280.00
C 439.94 280.00 435.48 268.38 430.75 266.25 C 426.03 264.11 421.44 254.38 416.75 252.25 C 412.06 250.11 408.03 239.00 403.00 239.00
C 397.66 244.34 391.17 249.41 386.00 255.00 Z"/>
</g>
<g fill="#7396A9" fill-opacity="1.00" stroke="None">
<path d="
M 149.00 577.00 
C 176.60 545.34 210.44 518.05 239.25 487.25 C 268.06 456.45 299.17 427.81 328.75 397.75 C 358.33 367.70 388.23 337.77 418.00 308.00
C 418.00 308.00 417.16 307.77 417.00 308.00
C 402.70 328.46 379.64 343.24 363.25 362.25 C 346.85 381.26 326.80 397.22 309.75 415.75 C 292.70 434.28 272.86 451.27 255.75 469.75 C 238.65 488.23 218.87 504.45 202.25 523.25 C 185.63 542.05 163.92 556.93 149.00 577.00 Z"/>
</g>
</svg>