<svg xmlns="http://www.w3.org/2000/svg"
viewBox = "0 0 419 513"
width="30"
height="35">
<g fill="None" fill-opacity="0.0" stroke="#000000" stroke-opacity="0.00" stroke-width="0.3"><path d="
M 0.00 513.00
L 16.00 513.00
C -10.19 502.52 5.75 477.00 21.25 464.25 C 36.75 451.49 48.61 435.71 63.25 422.25 C 77.89 408.78 91.04 394.06 105.25 380.25 C 119.46 366.43 133.33 352.29 147.25 338.25 C 161.17 324.21 175.68 310.54 189.25 296.25 C 202.82 281.95 218.31 268.99 231.25 254.25 C 244.19 239.50 261.85 227.95 273.00 212.00
C 268.04 204.91 260.38 198.89 254.25 192.75 C 248.11 186.61 242.03 178.92 235.00 174.00
C 233.49 182.11 231.84 190.57 234.00 199.00
C 198.65 210.44 171.21 162.42 188.75 136.75 C 206.30 111.09 227.91 97.41 247.75 74.75 C 267.60 52.09 300.80 34.49 291.00 1.00
C 323.48 -6.54 352.72 28.04 340.00 58.00
C 355.00 72.17 369.88 87.05 384.00 102.00
C 395.85 89.34 418.49 99.82 419.00 116.00
L 419.00 0.00
L 0.00 0.00
L 0.00 513.00 Z"/>
</g>
<g fill="None" fill-opacity="0.0" stroke="#FC7475" stroke-opacity="0.98" stroke-width="0.3"><path d="
M 235.00 174.00
C 235.09 173.52 235.00 173.00 235.00 173.00
C 235.00 172.50 235.00 172.00 235.00 172.00
C 236.87 167.24 239.85 162.99 243.00 159.00
C 255.75 142.85 272.81 129.96 286.75 114.75 C 300.69 99.54 316.51 85.49 331.00 71.00
C 334.30 67.14 336.72 63.41 339.00 59.00
C 339.17 58.67 339.89 58.26 340.00 58.00
C 352.72 28.04 323.48 -6.54 291.00 1.00
C 300.80 34.49 267.60 52.09 247.75 74.75 C 227.91 97.41 206.30 111.09 188.75 136.75 C 171.21 162.42 198.65 210.44 234.00 199.00
C 231.84 190.57 233.49 182.11 235.00 174.00 Z"/>
</g>
<g fill="None" fill-opacity="0.0" stroke="#FEE8BE" stroke-opacity="0.67" stroke-width="0.3"><path d="
M 339.00 59.00
C 350.70 75.51 371.31 86.32 383.00 103.00
C 383.16 102.77 384.00 103.00 384.00 103.00
C 384.20 102.60 384.00 102.00 384.00 102.00
C 367.25 90.29 356.45 69.66 340.00 58.00
C 339.89 58.26 339.17 58.67 339.00 59.00 Z"/>
</g>
<g fill="None" fill-opacity="0.0" stroke="#FFFFBF" stroke-opacity="0.02" stroke-width="0.3"><path d="
M 384.00 102.00
C 369.88 87.05 355.00 72.17 340.00 58.00
C 356.45 69.66 367.25 90.29 384.00 102.00 Z"/>
</g>
<g fill="None" fill-opacity="0.0" stroke="#FEE8BE" stroke-opacity="1.00" stroke-width="0.3"><path d="
M 331.00 71.00
C 326.05 76.80 320.34 82.66 315.00 88.00
C 315.00 93.03 326.11 97.06 328.25 101.75 C 330.38 106.44 340.11 111.03 342.25 115.75 C 344.38 120.48 356.00 124.94 356.00 130.00
C 364.68 121.32 375.96 113.07 383.00 103.00
C 371.31 86.32 350.70 75.51 339.00 59.00
C 336.72 63.41 334.30 67.14 331.00 71.00 Z"/>
</g>
<g fill="None" fill-opacity="0.0" stroke="#FDA387" stroke-opacity="1.00" stroke-width="0.3"><path d="
M 243.00 159.00
C 248.17 153.41 254.66 148.34 260.00 143.00
C 268.92 134.08 278.13 124.87 287.00 116.00
C 296.25 106.75 305.80 97.20 315.00 88.00
C 320.34 82.66 326.05 76.80 331.00 71.00
C 316.51 85.49 300.69 99.54 286.75 114.75 C 272.81 129.96 255.75 142.85 243.00 159.00 Z"/>
</g>
<g fill="None" fill-opacity="0.0" stroke="#FED37D" stroke-opacity="1.00" stroke-width="0.3"><path d="
M 287.00 116.00
C 292.03 116.00 296.06 127.11 300.75 129.25 C 305.44 131.38 310.03 141.11 314.75 143.25 C 319.48 145.38 323.94 157.00 329.00 157.00
C 337.92 148.08 347.13 138.87 356.00 130.00
C 356.00 124.94 344.38 120.48 342.25 115.75 C 340.11 111.03 330.38 106.44 328.25 101.75 C 326.11 97.06 315.00 93.03 315.00 88.00
C 305.80 97.20 296.25 106.75 287.00 116.00 Z"/>
</g>
<g fill="None" fill-opacity="0.0" stroke="#3D7A94" stroke-opacity="0.98" stroke-width="0.3"><path d="
M 384.00 102.00
C 384.00 102.00 384.20 102.60 384.00 103.00
C 378.70 113.84 364.96 120.78 357.25 130.25 C 349.53 139.72 338.47 149.03 329.75 157.75 C 321.03 166.47 312.28 177.08 302.75 184.75 C 293.22 192.43 285.85 206.68 275.00 212.00
C 274.60 212.20 274.00 212.00 274.00 212.00
C 273.50 212.00 273.00 212.00 273.00 212.00
C 261.85 227.95 244.19 239.50 231.25 254.25 C 218.31 268.99 202.82 281.95 189.25 296.25 C 175.68 310.54 161.17 324.21 147.25 338.25 C 133.33 352.29 119.46 366.43 105.25 380.25 C 91.04 394.06 77.89 408.78 63.25 422.25 C 48.61 435.71 36.75 451.49 21.25 464.25 C 5.75 477.00 -10.19 502.52 16.00 513.00
L 28.00 513.00
C 30.67 511.82 33.50 509.97 36.00 508.00
C 77.96 469.20 117.62 426.38 158.00 386.00
C 233.92 310.08 310.13 233.87 386.00 158.00
C 394.85 149.15 404.57 140.12 413.00 131.00
C 416.42 126.67 418.06 121.96 419.00 117.00
L 419.00 116.00
C 418.49 99.82 395.85 89.34 384.00 102.00 Z"/>
</g>
<g fill="None" fill-opacity="0.0" stroke="#739697" stroke-opacity="1.00" stroke-width="0.3"><path d="
M 356.00 130.00
C 347.13 138.87 337.92 148.08 329.00 157.00
C 320.08 165.92 310.87 175.13 302.00 184.00
C 293.32 192.68 285.07 203.96 275.00 211.00
C 275.23 211.16 275.00 212.00 275.00 212.00
C 285.85 206.68 293.22 192.43 302.75 184.75 C 312.28 177.08 321.03 166.47 329.75 157.75 C 338.47 149.03 349.53 139.72 357.25 130.25 C 364.96 120.78 378.70 113.84 384.00 103.00
C 384.00 103.00 383.16 102.77 383.00 103.00
C 375.96 113.07 364.68 121.32 356.00 130.00 Z"/>
</g>
<g fill="None" fill-opacity="0.0" stroke="#FEE8BE" stroke-opacity="1.00" stroke-width="0.3"><path d="
M 260.00 143.00
C 265.03 143.00 269.06 154.11 273.75 156.25 C 278.44 158.38 283.03 168.11 287.75 170.25 C 292.48 172.38 296.94 184.00 302.00 184.00
C 310.87 175.13 320.08 165.92 329.00 157.00
C 323.94 157.00 319.48 145.38 314.75 143.25 C 310.03 141.11 305.44 131.38 300.75 129.25 C 296.06 127.11 292.03 116.00 287.00 116.00
C 278.13 124.87 268.92 134.08 260.00 143.00 Z"/>
</g>
<g fill="None" fill-opacity="0.0" stroke="#000000" stroke-opacity="0.00" stroke-width="0.3"><path d="
M 413.00 131.00
C 405.21 140.87 394.81 149.19 386.00 158.00
C 310.08 233.92 233.87 310.13 158.00 386.00
C 137.83 406.18 118.32 427.94 97.25 447.25 C 76.17 466.56 58.33 490.37 36.00 508.00
C 33.50 509.97 30.67 511.82 28.00 513.00
L 419.00 513.00
L 419.00 117.00
C 418.06 121.96 416.42 126.67 413.00 131.00 Z"/>
</g>
<g fill="None" fill-opacity="0.0" stroke="#2A8080" stroke-opacity="0.02" stroke-width="0.3"><path d="
M 386.00 158.00
C 394.81 149.19 405.21 140.87 413.00 131.00
C 404.57 140.12 394.85 149.15 386.00 158.00 Z"/>
</g>
<g fill="None" fill-opacity="0.0" stroke="#FED27D" stroke-opacity="1.00" stroke-width="0.3"><path d="
M 243.00 159.00
C 239.85 162.99 236.87 167.24 235.00 172.00
C 243.11 175.38 247.54 186.06 254.75 191.25 C 261.96 196.43 267.66 205.87 275.00 211.00
C 285.07 203.96 293.32 192.68 302.00 184.00
C 296.94 184.00 292.48 172.38 287.75 170.25 C 283.03 168.11 278.44 158.38 273.75 156.25 C 269.06 154.11 265.03 143.00 260.00 143.00
C 254.66 148.34 248.17 153.41 243.00 159.00 Z"/>
</g>
<g fill="None" fill-opacity="0.0" stroke="#336699" stroke-opacity="0.02" stroke-width="0.3"><path d="
M 158.00 386.00
C 233.87 310.13 310.08 233.92 386.00 158.00
C 310.13 233.87 233.92 310.08 158.00 386.00 Z"/>
</g>
<g fill="None" fill-opacity="0.0" stroke="#FED27D" stroke-opacity="0.72" stroke-width="0.3"><path d="
M 235.00 173.00
C 242.27 178.08 248.46 185.96 254.75 192.25 C 261.05 198.54 268.96 204.79 274.00 212.00
C 274.00 212.00 274.60 212.20 275.00 212.00
C 275.00 212.00 275.23 211.16 275.00 211.00
C 267.66 205.87 261.96 196.43 254.75 191.25 C 247.54 186.06 243.11 175.38 235.00 172.00
C 235.00 172.00 235.00 172.50 235.00 173.00 Z"/>
</g>
<g fill="None" fill-opacity="0.0" stroke="#FEDF80" stroke-opacity="0.03" stroke-width="0.3"><path d="
M 235.00 174.00
C 242.03 178.92 248.11 186.61 254.25 192.75 C 260.38 198.89 268.04 204.91 273.00 212.00
C 273.00 212.00 273.50 212.00 274.00 212.00
C 268.96 204.79 261.05 198.54 254.75 192.25 C 248.46 185.96 242.27 178.08 235.00 173.00
C 235.00 173.00 235.09 173.52 235.00 174.00 Z"/>
</g>
<g fill="None" fill-opacity="0.0" stroke="#408080" stroke-opacity="0.02" stroke-width="0.3"><path d="
M 36.00 508.00
C 58.33 490.37 76.17 466.56 97.25 447.25 C 118.32 427.94 137.83 406.18 158.00 386.00
C 117.62 426.38 77.96 469.20 36.00 508.00 Z"/>
</g>
<g fill="#000000" fill-opacity="0.00" stroke="None">
<path d="
M 0.00 513.00
L 16.00 513.00
C -10.19 502.52 5.75 477.00 21.25 464.25 C 36.75 451.49 48.61 435.71 63.25 422.25 C 77.89 408.78 91.04 394.06 105.25 380.25 C 119.46 366.43 133.33 352.29 147.25 338.25 C 161.17 324.21 175.68 310.54 189.25 296.25 C 202.82 281.95 218.31 268.99 231.25 254.25 C 244.19 239.50 261.85 227.95 273.00 212.00
C 268.04 204.91 260.38 198.89 254.25 192.75 C 248.11 186.61 242.03 178.92 235.00 174.00
C 233.49 182.11 231.84 190.57 234.00 199.00
C 198.65 210.44 171.21 162.42 188.75 136.75 C 206.30 111.09 227.91 97.41 247.75 74.75 C 267.60 52.09 300.80 34.49 291.00 1.00
C 323.48 -6.54 352.72 28.04 340.00 58.00
C 355.00 72.17 369.88 87.05 384.00 102.00
C 395.85 89.34 418.49 99.82 419.00 116.00
L 419.00 0.00
L 0.00 0.00
L 0.00 513.00 Z"/>
</g>
<g fill="#FC7475" fill-opacity="0.98" stroke="None">
<path d="
M 235.00 174.00
C 235.09 173.52 235.00 173.00 235.00 173.00
C 235.00 172.50 235.00 172.00 235.00 172.00
C 236.87 167.24 239.85 162.99 243.00 159.00
C 255.75 142.85 272.81 129.96 286.75 114.75 C 300.69 99.54 316.51 85.49 331.00 71.00
C 334.30 67.14 336.72 63.41 339.00 59.00
C 339.17 58.67 339.89 58.26 340.00 58.00
C 352.72 28.04 323.48 -6.54 291.00 1.00
C 300.80 34.49 267.60 52.09 247.75 74.75 C 227.91 97.41 206.30 111.09 188.75 136.75 C 171.21 162.42 198.65 210.44 234.00 199.00
C 231.84 190.57 233.49 182.11 235.00 174.00 Z"/>
</g>
<g fill="#FEE8BE" fill-opacity="0.67" stroke="None">
<path d="
M 339.00 59.00
C 350.70 75.51 371.31 86.32 383.00 103.00
C 383.16 102.77 384.00 103.00 384.00 103.00
C 384.20 102.60 384.00 102.00 384.00 102.00
C 367.25 90.29 356.45 69.66 340.00 58.00
C 339.89 58.26 339.17 58.67 339.00 59.00 Z"/>
</g>
<g fill="#FFFFBF" fill-opacity="0.02" stroke="None">
<path d="
M 384.00 102.00
C 369.88 87.05 355.00 72.17 340.00 58.00
C 356.45 69.66 367.25 90.29 384.00 102.00 Z"/>
</g>
<g fill="#FEE8BE" fill-opacity="1.00" stroke="None">
<path d="
M 331.00 71.00
C 326.05 76.80 320.34 82.66 315.00 88.00
C 315.00 93.03 326.11 97.06 328.25 101.75 C 330.38 106.44 340.11 111.03 342.25 115.75 C 344.38 120.48 356.00 124.94 356.00 130.00
C 364.68 121.32 375.96 113.07 383.00 103.00
C 371.31 86.32 350.70 75.51 339.00 59.00
C 336.72 63.41 334.30 67.14 331.00 71.00 Z"/>
</g>
<g fill="#FDA387" fill-opacity="1.00" stroke="None">
<path d="
M 243.00 159.00
C 248.17 153.41 254.66 148.34 260.00 143.00
C 268.92 134.08 278.13 124.87 287.00 116.00
C 296.25 106.75 305.80 97.20 315.00 88.00
C 320.34 82.66 326.05 76.80 331.00 71.00
C 316.51 85.49 300.69 99.54 286.75 114.75 C 272.81 129.96 255.75 142.85 243.00 159.00 Z"/>
</g>
<g fill="#FED37D" fill-opacity="1.00" stroke="None">
<path d="
M 287.00 116.00
C 292.03 116.00 296.06 127.11 300.75 129.25 C 305.44 131.38 310.03 141.11 314.75 143.25 C 319.48 145.38 323.94 157.00 329.00 157.00
C 337.92 148.08 347.13 138.87 356.00 130.00
C 356.00 124.94 344.38 120.48 342.25 115.75 C 340.11 111.03 330.38 106.44 328.25 101.75 C 326.11 97.06 315.00 93.03 315.00 88.00
C 305.80 97.20 296.25 106.75 287.00 116.00 Z"/>
</g>
<g fill="#3D7A94" fill-opacity="0.98" stroke="None">
<path d="
M 384.00 102.00
C 384.00 102.00 384.20 102.60 384.00 103.00
C 378.70 113.84 364.96 120.78 357.25 130.25 C 349.53 139.72 338.47 149.03 329.75 157.75 C 321.03 166.47 312.28 177.08 302.75 184.75 C 293.22 192.43 285.85 206.68 275.00 212.00
C 274.60 212.20 274.00 212.00 274.00 212.00
C 273.50 212.00 273.00 212.00 273.00 212.00
C 261.85 227.95 244.19 239.50 231.25 254.25 C 218.31 268.99 202.82 281.95 189.25 296.25 C 175.68 310.54 161.17 324.21 147.25 338.25 C 133.33 352.29 119.46 366.43 105.25 380.25 C 91.04 394.06 77.89 408.78 63.25 422.25 C 48.61 435.71 36.75 451.49 21.25 464.25 C 5.75 477.00 -10.19 502.52 16.00 513.00
L 28.00 513.00
C 30.67 511.82 33.50 509.97 36.00 508.00
C 77.96 469.20 117.62 426.38 158.00 386.00
C 233.92 310.08 310.13 233.87 386.00 158.00
C 394.85 149.15 404.57 140.12 413.00 131.00
C 416.42 126.67 418.06 121.96 419.00 117.00
L 419.00 116.00
C 418.49 99.82 395.85 89.34 384.00 102.00 Z"/>
</g>
<g fill="#739697" fill-opacity="1.00" stroke="None">
<path d="
M 356.00 130.00
C 347.13 138.87 337.92 148.08 329.00 157.00
C 320.08 165.92 310.87 175.13 302.00 184.00
C 293.32 192.68 285.07 203.96 275.00 211.00
C 275.23 211.16 275.00 212.00 275.00 212.00
C 285.85 206.68 293.22 192.43 302.75 184.75 C 312.28 177.08 321.03 166.47 329.75 157.75 C 338.47 149.03 349.53 139.72 357.25 130.25 C 364.96 120.78 378.70 113.84 384.00 103.00
C 384.00 103.00 383.16 102.77 383.00 103.00
C 375.96 113.07 364.68 121.32 356.00 130.00 Z"/>
</g>
<g fill="#FEE8BE" fill-opacity="1.00" stroke="None">
<path d="
M 260.00 143.00
C 265.03 143.00 269.06 154.11 273.75 156.25 C 278.44 158.38 283.03 168.11 287.75 170.25 C 292.48 172.38 296.94 184.00 302.00 184.00
C 310.87 175.13 320.08 165.92 329.00 157.00
C 323.94 157.00 319.48 145.38 314.75 143.25 C 310.03 141.11 305.44 131.38 300.75 129.25 C 296.06 127.11 292.03 116.00 287.00 116.00
C 278.13 124.87 268.92 134.08 260.00 143.00 Z"/>
</g>
<g fill="#000000" fill-opacity="0.00" stroke="None">
<path d="
M 413.00 131.00
C 405.21 140.87 394.81 149.19 386.00 158.00
C 310.08 233.92 233.87 310.13 158.00 386.00
C 137.83 406.18 118.32 427.94 97.25 447.25 C 76.17 466.56 58.33 490.37 36.00 508.00
C 33.50 509.97 30.67 511.82 28.00 513.00
L 419.00 513.00
L 419.00 117.00
C 418.06 121.96 416.42 126.67 413.00 131.00 Z"/>
</g>
<g fill="#2A8080" fill-opacity="0.02" stroke="None">
<path d="
M 386.00 158.00
C 394.81 149.19 405.21 140.87 413.00 131.00
C 404.57 140.12 394.85 149.15 386.00 158.00 Z"/>
</g>
<g fill="#FED27D" fill-opacity="1.00" stroke="None">
<path d="
M 243.00 159.00
C 239.85 162.99 236.87 167.24 235.00 172.00
C 243.11 175.38 247.54 186.06 254.75 191.25 C 261.96 196.43 267.66 205.87 275.00 211.00
C 285.07 203.96 293.32 192.68 302.00 184.00
C 296.94 184.00 292.48 172.38 287.75 170.25 C 283.03 168.11 278.44 158.38 273.75 156.25 C 269.06 154.11 265.03 143.00 260.00 143.00
C 254.66 148.34 248.17 153.41 243.00 159.00 Z"/>
</g>
<g fill="#336699" fill-opacity="0.02" stroke="None">
<path d="
M 158.00 386.00
C 233.87 310.13 310.08 233.92 386.00 158.00
C 310.13 233.87 233.92 310.08 158.00 386.00 Z"/>
</g>
<g fill="#FED27D" fill-opacity="0.72" stroke="None">
<path d="
M 235.00 173.00
C 242.27 178.08 248.46 185.96 254.75 192.25 C 261.05 198.54 268.96 204.79 274.00 212.00
C 274.00 212.00 274.60 212.20 275.00 212.00
C 275.00 212.00 275.23 211.16 275.00 211.00
C 267.66 205.87 261.96 196.43 254.75 191.25 C 247.54 186.06 243.11 175.38 235.00 172.00
C 235.00 172.00 235.00 172.50 235.00 173.00 Z"/>
</g>
<g fill="#FEDF80" fill-opacity="0.03" stroke="None">
<path d="
M 235.00 174.00
C 242.03 178.92 248.11 186.61 254.25 192.75 C 260.38 198.89 268.04 204.91 273.00 212.00
C 273.00 212.00 273.50 212.00 274.00 212.00
C 268.96 204.79 261.05 198.54 254.75 192.25 C 248.46 185.96 242.27 178.08 235.00 173.00
C 235.00 173.00 235.09 173.52 235.00 174.00 Z"/>
</g>
<g fill="#408080" fill-opacity="0.02" stroke="None">
<path d="
M 36.00 508.00
C 58.33 490.37 76.17 466.56 97.25 447.25 C 118.32 427.94 137.83 406.18 158.00 386.00
C 117.62 426.38 77.96 469.20 36.00 508.00 Z"/>
</g>
</svg>