<svg xmlns="http://www.w3.org/2000/svg" xmlns:xlink="http://www.w3.org/1999/xlink" version="1.1" width="256" height="256" viewBox="0 0 256 256" xml:space="preserve">
<g style="stroke: none; stroke-width: 0; stroke-dasharray: none; stroke-linecap: butt; stroke-linejoin: miter; stroke-miterlimit: 10; fill: none; fill-rule: nonzero; opacity: 1;" transform="translate(1.4065934065934016 1.4065934065934016) scale(2.81 2.81)">
	<path d="M 45 56.089 C 57.545 56.089 54.997 90 63.034 90 c 6.469 0 13.385 -18.517 12.12 -39.959 c -0.231 -3.914 0.708 -7.81 2.564 -11.263 C 96.046 4.666 70.96 -5.836 50.052 2.955 c -3.222 1.355 -6.882 1.355 -10.104 0 C 19.04 -5.836 -6.046 4.666 12.283 38.778 c 1.856 3.453 2.795 7.349 2.564 11.263 C 13.581 71.483 20.498 90 26.966 90 C 35.003 90 32.455 56.089 45 56.089 z" style="stroke: none; stroke-width: 1; stroke-dasharray: none; stroke-linecap: butt; stroke-linejoin: miter; stroke-miterlimit: 10; fill: rgb(0,0,0); fill-rule: nonzero; opacity: 1;" transform=" matrix(1 0 0 1 0 0) " stroke-linecap="round"/>
</g>
</svg>